<svg xmlns="http://www.w3.org/2000/svg" width="1422" height="296" viewBox="0 0 1422 296">
<rect x="0" y="0" width="1422" height="296" fill="#ffffff"/>
<text x="18" y="40" font-size="18" font-weight="900" fill="#0f172a">Replay strip — game 716494 — at-bat 17</text>
<text x="18" y="58" font-size="12" font-weight="650" fill="#475569">dot = actual pitch location, cross = predicted mean</text>
<rect x="18" y="64" width="186" height="214" rx="14" fill="#ffffff" stroke="#e2e8f0"/>
<text x="30" y="86" font-size="12" font-weight="800" fill="#0f172a">#1  0-0  Top 3  outs 0  1--</text>
<text x="30" y="104" font-size="11" font-weight="650" fill="#475569">actual SL • pred SI (0.45) • loc_nll 1.97</text>
<rect x="51" y="118" width="120" height="120" fill="#ffffff" stroke="#e2e8f0"/>
<rect x="86.1" y="148.0" width="49.8" height="60.0" fill="none" stroke="#0f172a" stroke-width="1.2" />
<line x1="109.5" y1="183.3" x2="121.5" y2="183.3" stroke="#f97316" stroke-width="2" />
<line x1="115.5" y1="177.3" x2="115.5" y2="189.3" stroke="#f97316" stroke-width="2" />
<circle cx="137.4" cy="191.8" r="4.0" fill="#a855f7" stroke="#0f172a" stroke-width="1.0" />
<text x="32" y="258" font-size="10" font-weight="800" fill="#475569">SI</text>
<rect x="60" y="250" width="58.7" height="9" fill="#06b6d4" opacity="0.9" />
<rect x="60" y="250" width="130" height="9" fill="none" stroke="#e2e8f0" />
<text x="196" y="258" font-size="10" font-weight="750" fill="#475569">0.45</text>
<text x="32" y="270" font-size="10" font-weight="800" fill="#475569">FF</text>
<rect x="60" y="262" width="40.0" height="9" fill="#0ea5e9" opacity="0.9" />
<rect x="60" y="262" width="130" height="9" fill="none" stroke="#e2e8f0" />
<text x="196" y="270" font-size="10" font-weight="750" fill="#475569">0.31</text>
<text x="32" y="282" font-size="10" font-weight="800" fill="#475569">SL</text>
<rect x="60" y="274" width="18.4" height="9" fill="#a855f7" opacity="0.9" />
<rect x="60" y="274" width="130" height="9" fill="none" stroke="#e2e8f0" />
<text x="196" y="282" font-size="10" font-weight="750" fill="#475569">0.14</text>
<text x="32" y="294" font-size="10" font-weight="800" fill="#475569">CU</text>
<rect x="60" y="286" width="11.3" height="9" fill="#f97316" opacity="0.9" />
<rect x="60" y="286" width="130" height="9" fill="none" stroke="#e2e8f0" />
<text x="196" y="294" font-size="10" font-weight="750" fill="#475569">0.09</text>
<text x="32" y="306" font-size="10" font-weight="800" fill="#475569">CH</text>
<rect x="60" y="298" width="0.8" height="9" fill="#10b981" opacity="0.9" />
<rect x="60" y="298" width="130" height="9" fill="none" stroke="#e2e8f0" />
<text x="196" y="306" font-size="10" font-weight="750" fill="#475569">0.01</text>
<rect x="218" y="64" width="186" height="214" rx="14" fill="#ffffff" stroke="#e2e8f0"/>
<text x="230" y="86" font-size="12" font-weight="800" fill="#0f172a">#2  0-1  Top 3  outs 0  1--</text>
<text x="230" y="104" font-size="11" font-weight="650" fill="#475569">actual CU • pred SL (0.38) • loc_nll 2.10</text>
<rect x="251" y="118" width="120" height="120" fill="#ffffff" stroke="#e2e8f0"/>
<rect x="286.1" y="148.0" width="49.8" height="60.0" fill="none" stroke="#0f172a" stroke-width="1.2" />
<line x1="313.1" y1="188.7" x2="325.1" y2="188.7" stroke="#f97316" stroke-width="2" />
<line x1="319.1" y1="182.7" x2="319.1" y2="194.7" stroke="#f97316" stroke-width="2" />
<circle cx="328.4" cy="215.5" r="4.0" fill="#f97316" stroke="#0f172a" stroke-width="1.0" />
<text x="232" y="258" font-size="10" font-weight="800" fill="#475569">SL</text>
<rect x="260" y="250" width="48.8" height="9" fill="#a855f7" opacity="0.9" />
<rect x="260" y="250" width="130" height="9" fill="none" stroke="#e2e8f0" />
<text x="396" y="258" font-size="10" font-weight="750" fill="#475569">0.38</text>
<text x="232" y="270" font-size="10" font-weight="800" fill="#475569">SI</text>
<rect x="260" y="262" width="37.6" height="9" fill="#06b6d4" opacity="0.9" />
<rect x="260" y="262" width="130" height="9" fill="none" stroke="#e2e8f0" />
<text x="396" y="270" font-size="10" font-weight="750" fill="#475569">0.29</text>
<text x="232" y="282" font-size="10" font-weight="800" fill="#475569">FF</text>
<rect x="260" y="274" width="20.5" height="9" fill="#0ea5e9" opacity="0.9" />
<rect x="260" y="274" width="130" height="9" fill="none" stroke="#e2e8f0" />
<text x="396" y="282" font-size="10" font-weight="750" fill="#475569">0.16</text>
<text x="232" y="294" font-size="10" font-weight="800" fill="#475569">CU</text>
<rect x="260" y="286" width="17.0" height="9" fill="#f97316" opacity="0.9" />
<rect x="260" y="286" width="130" height="9" fill="none" stroke="#e2e8f0" />
<text x="396" y="294" font-size="10" font-weight="750" fill="#475569">0.13</text>
<text x="232" y="306" font-size="10" font-weight="800" fill="#475569">CH</text>
<rect x="260" y="298" width="5.5" height="9" fill="#10b981" opacity="0.9" />
<rect x="260" y="298" width="130" height="9" fill="none" stroke="#e2e8f0" />
<text x="396" y="306" font-size="10" font-weight="750" fill="#475569">0.04</text>
<rect x="418" y="64" width="186" height="214" rx="14" fill="#ffffff" stroke="#e2e8f0"/>
<text x="430" y="86" font-size="12" font-weight="800" fill="#0f172a">#3  1-1  Top 3  outs 0  1--</text>
<text x="430" y="104" font-size="11" font-weight="650" fill="#475569">actual CU • pred SI (0.45) • loc_nll 1.72</text>
<rect x="451" y="118" width="120" height="120" fill="#ffffff" stroke="#e2e8f0"/>
<rect x="486.1" y="148.0" width="49.8" height="60.0" fill="none" stroke="#0f172a" stroke-width="1.2" />
<line x1="509.8" y1="189.6" x2="521.8" y2="189.6" stroke="#f97316" stroke-width="2" />
<line x1="515.8" y1="183.6" x2="515.8" y2="195.6" stroke="#f97316" stroke-width="2" />
<circle cx="523.6" cy="201.1" r="4.0" fill="#f97316" stroke="#0f172a" stroke-width="1.0" />
<text x="432" y="258" font-size="10" font-weight="800" fill="#475569">SI</text>
<rect x="460" y="250" width="59.0" height="9" fill="#06b6d4" opacity="0.9" />
<rect x="460" y="250" width="130" height="9" fill="none" stroke="#e2e8f0" />
<text x="596" y="258" font-size="10" font-weight="750" fill="#475569">0.45</text>
<text x="432" y="270" font-size="10" font-weight="800" fill="#475569">SL</text>
<rect x="460" y="262" width="33.6" height="9" fill="#a855f7" opacity="0.9" />
<rect x="460" y="262" width="130" height="9" fill="none" stroke="#e2e8f0" />
<text x="596" y="270" font-size="10" font-weight="750" fill="#475569">0.26</text>
<text x="432" y="282" font-size="10" font-weight="800" fill="#475569">FF</text>
<rect x="460" y="274" width="22.7" height="9" fill="#0ea5e9" opacity="0.9" />
<rect x="460" y="274" width="130" height="9" fill="none" stroke="#e2e8f0" />
<text x="596" y="282" font-size="10" font-weight="750" fill="#475569">0.17</text>
<text x="432" y="294" font-size="10" font-weight="800" fill="#475569">CU</text>
<rect x="460" y="286" width="7.4" height="9" fill="#f97316" opacity="0.9" />
<rect x="460" y="286" width="130" height="9" fill="none" stroke="#e2e8f0" />
<text x="596" y="294" font-size="10" font-weight="750" fill="#475569">0.06</text>
<text x="432" y="306" font-size="10" font-weight="800" fill="#475569">CH</text>
<rect x="460" y="298" width="6.9" height="9" fill="#10b981" opacity="0.9" />
<rect x="460" y="298" width="130" height="9" fill="none" stroke="#e2e8f0" />
<text x="596" y="306" font-size="10" font-weight="750" fill="#475569">0.05</text>
<rect x="618" y="64" width="186" height="214" rx="14" fill="#ffffff" stroke="#e2e8f0"/>
<text x="630" y="86" font-size="12" font-weight="800" fill="#0f172a">#4  1-2  Top 3  outs 0  1--</text>
<text x="630" y="104" font-size="11" font-weight="650" fill="#475569">actual FF • pred SL (0.41) • loc_nll 3.40</text>
<rect x="651" y="118" width="120" height="120" fill="#ffffff" stroke="#e2e8f0"/>
<rect x="686.1" y="148.0" width="49.8" height="60.0" fill="none" stroke="#0f172a" stroke-width="1.2" />
<line x1="720.5" y1="195.1" x2="732.5" y2="195.1" stroke="#f97316" stroke-width="2" />
<line x1="726.5" y1="189.1" x2="726.5" y2="201.1" stroke="#f97316" stroke-width="2" />
<circle cx="764.7" cy="191.5" r="4.0" fill="#0ea5e9" stroke="#0f172a" stroke-width="1.0" />
<text x="632" y="258" font-size="10" font-weight="800" fill="#475569">SL</text>
<rect x="660" y="250" width="53.6" height="9" fill="#a855f7" opacity="0.9" />
<rect x="660" y="250" width="130" height="9" fill="none" stroke="#e2e8f0" />
<text x="796" y="258" font-size="10" font-weight="750" fill="#475569">0.41</text>
<text x="632" y="270" font-size="10" font-weight="800" fill="#475569">FF</text>
<rect x="660" y="262" width="27.0" height="9" fill="#0ea5e9" opacity="0.9" />
<rect x="660" y="262" width="130" height="9" fill="none" stroke="#e2e8f0" />
<text x="796" y="270" font-size="10" font-weight="750" fill="#475569">0.21</text>
<text x="632" y="282" font-size="10" font-weight="800" fill="#475569">CU</text>
<rect x="660" y="274" width="19.1" height="9" fill="#f97316" opacity="0.9" />
<rect x="660" y="274" width="130" height="9" fill="none" stroke="#e2e8f0" />
<text x="796" y="282" font-size="10" font-weight="750" fill="#475569">0.15</text>
<text x="632" y="294" font-size="10" font-weight="800" fill="#475569">SI</text>
<rect x="660" y="286" width="16.7" height="9" fill="#06b6d4" opacity="0.9" />
<rect x="660" y="286" width="130" height="9" fill="none" stroke="#e2e8f0" />
<text x="796" y="294" font-size="10" font-weight="750" fill="#475569">0.13</text>
<text x="632" y="306" font-size="10" font-weight="800" fill="#475569">CH</text>
<rect x="660" y="298" width="12.0" height="9" fill="#10b981" opacity="0.9" />
<rect x="660" y="298" width="130" height="9" fill="none" stroke="#e2e8f0" />
<text x="796" y="306" font-size="10" font-weight="750" fill="#475569">0.09</text>
<rect x="818" y="64" width="186" height="214" rx="14" fill="#ffffff" stroke="#e2e8f0"/>
<text x="830" y="86" font-size="12" font-weight="800" fill="#0f172a">#5  2-2  Top 3  outs 0  1--</text>
<text x="830" y="104" font-size="11" font-weight="650" fill="#475569">actual CU • pred SL (0.62) • loc_nll 5.86</text>
<rect x="851" y="118" width="120" height="120" fill="#ffffff" stroke="#e2e8f0"/>
<rect x="886.1" y="148.0" width="49.8" height="60.0" fill="none" stroke="#0f172a" stroke-width="1.2" />
<line x1="922.9" y1="199.1" x2="934.9" y2="199.1" stroke="#f97316" stroke-width="2" />
<line x1="928.9" y1="193.1" x2="928.9" y2="205.1" stroke="#f97316" stroke-width="2" />
<circle cx="953.3" cy="273.1" r="4.0" fill="#f97316" stroke="#0f172a" stroke-width="1.0" />
<text x="832" y="258" font-size="10" font-weight="800" fill="#475569">SL</text>
<rect x="860" y="250" width="80.0" height="9" fill="#a855f7" opacity="0.9" />
<rect x="860" y="250" width="130" height="9" fill="none" stroke="#e2e8f0" />
<text x="996" y="258" font-size="10" font-weight="750" fill="#475569">0.62</text>
<text x="832" y="270" font-size="10" font-weight="800" fill="#475569">CU</text>
<rect x="860" y="262" width="21.3" height="9" fill="#f97316" opacity="0.9" />
<rect x="860" y="262" width="130" height="9" fill="none" stroke="#e2e8f0" />
<text x="996" y="270" font-size="10" font-weight="750" fill="#475569">0.16</text>
<text x="832" y="282" font-size="10" font-weight="800" fill="#475569">SI</text>
<rect x="860" y="274" width="11.9" height="9" fill="#06b6d4" opacity="0.9" />
<rect x="860" y="274" width="130" height="9" fill="none" stroke="#e2e8f0" />
<text x="996" y="282" font-size="10" font-weight="750" fill="#475569">0.09</text>
<text x="832" y="294" font-size="10" font-weight="800" fill="#475569">FF</text>
<rect x="860" y="286" width="10.5" height="9" fill="#0ea5e9" opacity="0.9" />
<rect x="860" y="286" width="130" height="9" fill="none" stroke="#e2e8f0" />
<text x="996" y="294" font-size="10" font-weight="750" fill="#475569">0.08</text>
<text x="832" y="306" font-size="10" font-weight="800" fill="#475569">CH</text>
<rect x="860" y="298" width="5.8" height="9" fill="#10b981" opacity="0.9" />
<rect x="860" y="298" width="130" height="9" fill="none" stroke="#e2e8f0" />
<text x="996" y="306" font-size="10" font-weight="750" fill="#475569">0.04</text>
<rect x="1018" y="64" width="186" height="214" rx="14" fill="#ffffff" stroke="#e2e8f0"/>
<text x="1030" y="86" font-size="12" font-weight="800" fill="#0f172a">#6  3-2  Top 3  outs 0  -2-</text>
<text x="1030" y="104" font-size="11" font-weight="650" fill="#475569">actual SI • pred SL (0.46) • loc_nll 3.10</text>
<rect x="1051" y="118" width="120" height="120" fill="#ffffff" stroke="#e2e8f0"/>
<rect x="1086.1" y="148.0" width="49.8" height="60.0" fill="none" stroke="#0f172a" stroke-width="1.2" />
<line x1="1114.8" y1="191.5" x2="1126.8" y2="191.5" stroke="#f97316" stroke-width="2" />
<line x1="1120.8" y1="185.5" x2="1120.8" y2="197.5" stroke="#f97316" stroke-width="2" />
<circle cx="1080.4" cy="167.2" r="4.0" fill="#06b6d4" stroke="#0f172a" stroke-width="1.0" />
<text x="1032" y="258" font-size="10" font-weight="800" fill="#475569">SL</text>
<rect x="1060" y="250" width="59.7" height="9" fill="#a855f7" opacity="0.9" />
<rect x="1060" y="250" width="130" height="9" fill="none" stroke="#e2e8f0" />
<text x="1196" y="258" font-size="10" font-weight="750" fill="#475569">0.46</text>
<text x="1032" y="270" font-size="10" font-weight="800" fill="#475569">CU</text>
<rect x="1060" y="262" width="27.0" height="9" fill="#f97316" opacity="0.9" />
<rect x="1060" y="262" width="130" height="9" fill="none" stroke="#e2e8f0" />
<text x="1196" y="270" font-size="10" font-weight="750" fill="#475569">0.21</text>
<text x="1032" y="282" font-size="10" font-weight="800" fill="#475569">FF</text>
<rect x="1060" y="274" width="21.2" height="9" fill="#0ea5e9" opacity="0.9" />
<rect x="1060" y="274" width="130" height="9" fill="none" stroke="#e2e8f0" />
<text x="1196" y="282" font-size="10" font-weight="750" fill="#475569">0.16</text>
<text x="1032" y="294" font-size="10" font-weight="800" fill="#475569">SI</text>
<rect x="1060" y="286" width="20.0" height="9" fill="#06b6d4" opacity="0.9" />
<rect x="1060" y="286" width="130" height="9" fill="none" stroke="#e2e8f0" />
<text x="1196" y="294" font-size="10" font-weight="750" fill="#475569">0.15</text>
<text x="1032" y="306" font-size="10" font-weight="800" fill="#475569">CH</text>
<rect x="1060" y="298" width="1.6" height="9" fill="#10b981" opacity="0.9" />
<rect x="1060" y="298" width="130" height="9" fill="none" stroke="#e2e8f0" />
<text x="1196" y="306" font-size="10" font-weight="750" fill="#475569">0.01</text>
<rect x="1218" y="64" width="186" height="214" rx="14" fill="#ffffff" stroke="#e2e8f0"/>
<text x="1230" y="86" font-size="12" font-weight="800" fill="#0f172a">#7  3-2  Top 3  outs 0  -2-</text>
<text x="1230" y="104" font-size="11" font-weight="650" fill="#475569">actual CH • pred SL (0.51) • loc_nll 5.65</text>
<rect x="1251" y="118" width="120" height="120" fill="#ffffff" stroke="#e2e8f0"/>
<rect x="1286.1" y="148.0" width="49.8" height="60.0" fill="none" stroke="#0f172a" stroke-width="1.2" />
<line x1="1313.1" y1="188.6" x2="1325.1" y2="188.6" stroke="#f97316" stroke-width="2" />
<line x1="1319.1" y1="182.6" x2="1319.1" y2="194.6" stroke="#f97316" stroke-width="2" />
<circle cx="1306.2" cy="249.1" r="4.0" fill="#10b981" stroke="#0f172a" stroke-width="1.0" />
<text x="1232" y="258" font-size="10" font-weight="800" fill="#475569">SL</text>
<rect x="1260" y="250" width="66.8" height="9" fill="#a855f7" opacity="0.9" />
<rect x="1260" y="250" width="130" height="9" fill="none" stroke="#e2e8f0" />
<text x="1396" y="258" font-size="10" font-weight="750" fill="#475569">0.51</text>
<text x="1232" y="270" font-size="10" font-weight="800" fill="#475569">SI</text>
<rect x="1260" y="262" width="28.1" height="9" fill="#06b6d4" opacity="0.9" />
<rect x="1260" y="262" width="130" height="9" fill="none" stroke="#e2e8f0" />
<text x="1396" y="270" font-size="10" font-weight="750" fill="#475569">0.22</text>
<text x="1232" y="282" font-size="10" font-weight="800" fill="#475569">CU</text>
<rect x="1260" y="274" width="17.6" height="9" fill="#f97316" opacity="0.9" />
<rect x="1260" y="274" width="130" height="9" fill="none" stroke="#e2e8f0" />
<text x="1396" y="282" font-size="10" font-weight="750" fill="#475569">0.14</text>
<text x="1232" y="294" font-size="10" font-weight="800" fill="#475569">FF</text>
<rect x="1260" y="286" width="11.9" height="9" fill="#0ea5e9" opacity="0.9" />
<rect x="1260" y="286" width="130" height="9" fill="none" stroke="#e2e8f0" />
<text x="1396" y="294" font-size="10" font-weight="750" fill="#475569">0.09</text>
<text x="1232" y="306" font-size="10" font-weight="800" fill="#475569">CH</text>
<rect x="1260" y="298" width="5.0" height="9" fill="#10b981" opacity="0.9" />
<rect x="1260" y="298" width="130" height="9" fill="none" stroke="#e2e8f0" />
<text x="1396" y="306" font-size="10" font-weight="750" fill="#475569">0.04</text>
</svg>
